<?xml version="1.0" encoding="utf-8"?>
<!-- Generator: Adobe Illustrator 17.0.0, SVG Export Plug-In . SVG Version: 6.00 Build 0)  -->
<!DOCTYPE svg PUBLIC "-//W3C//DTD SVG 1.1//EN" "http://www.w3.org/Graphics/SVG/1.1/DTD/svg11.dtd">
<svg version="1.1" id="Layer_1" xmlns="http://www.w3.org/2000/svg" xmlns:xlink="http://www.w3.org/1999/xlink" x="0px" y="0px"
	 width="120px" height="600px" viewBox="0 0 120 600" enable-background="new 0 0 120 600" xml:space="preserve">
<g>
	<g>
		<g id="XMLID_128_">
			<path id="XMLID_132_" fill="#F7F7F7" d="M24.674,296.877c0.562,0,0.857-0.053,1.084-0.12c0.628-0.187,0.883-0.576,0.883-1.071
				s-0.255-0.843-0.843-1.017c-0.228-0.067-0.468-0.08-0.91-0.08h-1.164v2.288H24.674z M21.489,292.689h3.452
				c0.75,0,1.271,0.067,1.739,0.201c1.379,0.388,2.248,1.311,2.248,2.77c0,1.486-0.897,2.529-2.53,2.917
				c-0.442,0.107-0.95,0.147-1.646,0.147h-1.031v2.783h-2.235V292.689z"/>
			<path id="XMLID_129_" fill="#F7F7F7" d="M36.545,296.583c1.191,0,1.672-0.375,1.672-1.03c0-0.709-0.482-0.964-1.512-0.964h-1.338
				v1.994H36.545z M38.191,297.975c0.736,0.415,0.99,1.887,2.075,1.887c0.24,0,0.468-0.054,0.682-0.134l0.402,1.686
				c-0.455,0.174-1.004,0.228-1.418,0.228c-2.851,0-3.131-3.265-4.082-3.265h-0.482v3.131h-2.235v-8.818h3.639
				c2.409,0,3.734,0.923,3.734,2.783c0,1.311-0.829,2.208-2.315,2.475V297.975z"/>
		</g>
		<polygon id="XMLID_127_" fill="#F7F7F7" points="45.098,292.689 45.098,301.508 52.029,301.508 52.029,299.608 47.333,299.608 
			47.333,298.015 51.535,298.015 51.535,296.115 47.333,296.115 47.333,294.589 51.95,294.589 51.95,292.689 		"/>
		<polygon id="XMLID_126_" fill="#F7F7F7" points="65.239,292.689 61.84,296.731 61.814,296.731 58.415,292.689 56.394,292.689 
			56.394,301.508 58.628,301.508 58.628,296.195 58.655,296.195 61.64,299.755 61.988,299.755 64.971,296.195 64.998,296.195 
			64.998,301.508 67.233,301.508 67.233,292.689 		"/>
		<rect id="XMLID_125_" x="71.999" y="292.689" fill="#F7F7F7" width="2.235" height="8.818"/>
		<polygon id="XMLID_124_" fill="#F7F7F7" points="78.999,292.689 78.999,301.508 85.93,301.508 85.93,299.608 81.234,299.608 
			81.234,298.015 85.436,298.015 85.436,296.115 81.234,296.115 81.234,294.589 85.85,294.589 85.85,292.689 		"/>
		<path id="XMLID_121_" fill="#F7F7F7" d="M93.707,296.583c1.191,0,1.672-0.375,1.672-1.03c0-0.709-0.482-0.964-1.512-0.964H92.53
			v1.994H93.707z M95.353,297.975c0.736,0.415,0.99,1.887,2.074,1.887c0.24,0,0.468-0.054,0.682-0.134l0.402,1.686
			c-0.455,0.174-1.004,0.228-1.418,0.228c-2.851,0-3.131-3.265-4.082-3.265H92.53v3.131h-2.235v-8.818h3.639
			c2.409,0,3.734,0.923,3.734,2.783c0,1.311-0.829,2.208-2.315,2.475V297.975z"/>
	</g>
	<g>
		<path id="XMLID_120_" fill="#F7F7F7" d="M14.71,285.358c0.744,0.452,1.688,0.784,2.857,0.784c1.462,0,2.406-0.465,2.406-1.395
			c0-1.568-3.27-0.824-4.838-1.967c-0.492-0.359-0.797-0.89-0.797-1.728c0-1.728,1.435-2.578,3.415-2.578
			c1.343,0,2.618,0.385,3.442,0.864l-0.545,1.116c-0.718-0.359-1.754-0.691-2.804-0.691c-1.529,0-2.034,0.598-2.034,1.209
			c0,2.167,5.635,0.213,5.635,3.708c0,1.927-1.874,2.751-3.894,2.751c-1.449,0-2.631-0.385-3.482-0.944L14.71,285.358z"/>
		<polygon id="XMLID_119_" fill="#F7F7F7" points="24.118,278.54 24.118,279.802 27.375,279.802 27.375,287.298 28.783,287.298 
			28.783,279.802 32.039,279.802 32.039,278.54 		"/>
		<path id="XMLID_116_" fill="#F7F7F7" d="M38.299,280.48h0.027l1.542,3.07h-3.03L38.299,280.48z M37.834,278.5l-4.333,8.798h1.555
			l1.183-2.485h4.266l1.25,2.485h1.555l-4.492-8.798H37.834z"/>
		<polygon id="XMLID_115_" fill="#F7F7F7" points="54.419,278.54 54.419,284.879 54.393,284.879 48.079,278.54 46.977,278.54 
			46.977,287.298 48.385,287.298 48.385,280.865 48.412,280.865 54.817,287.298 55.828,287.298 55.828,278.54 		"/>
		<path id="XMLID_112_" fill="#F7F7F7" d="M63.389,286.035c0.864,0,1.582-0.08,2.193-0.252c1.462-0.425,2.352-1.382,2.352-3.003
			c0-1.635-0.944-2.446-2.272-2.791c-0.558-0.146-1.183-0.186-1.941-0.186H62.02v6.233H63.389z M60.611,278.54h3.282
			c0.824,0,1.515,0.066,2.14,0.213c2.033,0.492,3.376,1.807,3.376,4.027c0,2.233-1.382,3.655-3.495,4.239
			c-0.718,0.199-1.515,0.279-2.499,0.279h-2.804V278.54z"/>
		<path id="XMLID_109_" fill="#F7F7F7" d="M77.409,280.48h0.027l1.542,3.07h-3.03L77.409,280.48z M76.944,278.5l-4.332,8.798h1.555
			l1.183-2.485h4.266l1.249,2.485h1.555l-4.492-8.798H76.944z"/>
		<path id="XMLID_106_" fill="#F7F7F7" d="M88.559,282.647c0.571,0,1.023-0.027,1.382-0.133c0.678-0.199,1.117-0.625,1.117-1.342
			c0-0.665-0.426-1.09-0.997-1.25c-0.372-0.106-0.771-0.12-1.329-0.12h-1.236v2.844H88.559z M86.087,278.54h2.618
			c0.664,0,1.262,0.04,1.768,0.173c1.143,0.306,2.06,1.05,2.06,2.432c0,1.502-1.076,2.26-2.512,2.499v0.027
			c0.571,0.319,0.93,1.488,1.635,2.06c0.266,0.213,0.558,0.346,0.93,0.346c0.159,0,0.412-0.027,0.611-0.08l0.292,1.196
			c-0.253,0.106-0.691,0.173-1.103,0.173c-0.664,0-1.183-0.239-1.608-0.585c-1.21-0.983-1.675-2.871-2.565-2.871h-0.718v3.389
			h-1.409V278.54z"/>
		<path id="XMLID_103_" fill="#F7F7F7" d="M99.908,286.035c0.864,0,1.582-0.08,2.193-0.252c1.462-0.425,2.353-1.382,2.353-3.003
			c0-1.635-0.944-2.446-2.272-2.791c-0.558-0.146-1.183-0.186-1.941-0.186h-1.701v6.233H99.908z M97.13,278.54h3.282
			c0.824,0,1.515,0.066,2.14,0.213c2.033,0.492,3.376,1.807,3.376,4.027c0,2.233-1.382,3.655-3.495,4.239
			c-0.718,0.199-1.515,0.279-2.499,0.279H97.13V278.54z"/>
	</g>
</g>
</svg>
