<?xml version="1.0" encoding="utf-8"?>
<!-- Generator: Adobe Illustrator 17.0.0, SVG Export Plug-In . SVG Version: 6.00 Build 0)  -->
<!DOCTYPE svg PUBLIC "-//W3C//DTD SVG 1.1//EN" "http://www.w3.org/Graphics/SVG/1.1/DTD/svg11.dtd">
<svg version="1.1" id="Layer_1" xmlns="http://www.w3.org/2000/svg" xmlns:xlink="http://www.w3.org/1999/xlink" x="0px" y="0px"
	 width="120px" height="600px" viewBox="0 0 120 600" enable-background="new 0 0 120 600" xml:space="preserve">
<g>
	<g>
		<path fill="#FFFFFF" d="M35.484,210.276c1.007,0.76,2.413,1.216,4.122,1.216c2.128,0,3.895-0.779,3.895-2.507
			c0-2.679-5.11-1.501-7.276-3.287c-0.608-0.494-0.988-1.178-0.988-2.242c0-2.261,1.957-3.515,4.806-3.515
			c1.9,0,3.647,0.57,4.579,1.197l-0.589,1.083c-0.817-0.494-2.28-1.026-3.895-1.026c-2.451,0-3.419,1.045-3.419,2.185
			c0,3.667,8.264,0.665,8.264,5.585c0,2.564-2.508,3.78-5.376,3.78c-2.127,0-3.799-0.589-4.825-1.387L35.484,210.276z"/>
		<path fill="#FFFFFF" d="M52.792,199.98h1.007l6.402,12.576h-1.577l-1.995-3.989h-6.554l-1.938,3.989H46.58L52.792,199.98z
			 M56.003,207.332l-2.698-5.357h-0.038l-2.603,5.357H56.003z"/>
		<path fill="#FFFFFF" d="M60.773,200.037l5.356,10.582h0.038l5.092-10.582h1.558l-6.212,12.576h-0.95l-6.44-12.576H60.773z"/>
		<path fill="#FFFFFF" d="M74.889,200.037h8.625v1.254h-7.219v4.255h6.516v1.234h-6.516v4.521h7.333v1.254h-8.739V200.037z"/>
		<path fill="#FFFFFF" d="M25.15,238.773c0.434-9.023,10.418-7.1,13.239-9.147c0.465-0.341,0.744-0.775,0.744-1.395
			c0-1.209-1.426-1.922-4.278-1.922c-3.132,0-5.922,0.837-8.248,2.046l-1.891-3.751c2.822-1.582,6.201-2.636,10.17-2.636
			c4.806,0,9.116,1.768,9.116,6.325c0,8.837-13.767,4.372-13.767,10.046v0.217h14.046v4H24.964L25.15,238.773z"/>
		<path fill="#FFFFFF" d="M46.571,232.448c0-6.263,5.023-10.48,10.914-10.48c5.892,0,10.914,4.217,10.914,10.48
			c0,6.418-5.116,10.418-10.914,10.418S46.571,238.867,46.571,232.448z M63.531,232.448c0-3.566-2.604-6.139-6.046-6.139
			s-6.046,2.573-6.046,6.139c0,3.535,2.604,6.077,6.046,6.077C60.958,238.525,63.531,235.983,63.531,232.448z"/>
		<path fill="#FFFFFF" d="M70.286,224.839c0-3.225,2.604-5.395,5.612-5.395c3.007,0,5.611,2.17,5.611,5.395
			c0,3.287-2.666,5.364-5.611,5.364C72.922,230.204,70.286,228.126,70.286,224.839z M88.858,219.816h3.565l-17.021,20.526h-3.566
			L88.858,219.816z M78.533,224.839c0-1.581-1.146-2.697-2.635-2.697c-1.52,0-2.667,1.116-2.667,2.697
			c0,1.52,1.147,2.636,2.667,2.636C77.417,227.475,78.533,226.359,78.533,224.839z M83.06,235.133c0-3.225,2.604-5.395,5.612-5.395
			c3.007,0,5.611,2.17,5.611,5.395c0,3.287-2.666,5.364-5.611,5.364C85.696,240.498,83.06,238.42,83.06,235.133z M91.307,235.133
			c0-1.581-1.146-2.697-2.635-2.697c-1.52,0-2.667,1.116-2.667,2.697c0,1.52,1.147,2.636,2.667,2.636
			C90.191,237.769,91.307,236.653,91.307,235.133z"/>
	</g>
	<g>
		<path fill="#FFFFFF" d="M44.421,257.248c0-3.8,2.792-6.421,6.934-6.421c4.141,0,6.934,2.622,6.934,6.421
			c0,3.913-2.85,6.383-6.934,6.383C47.252,263.631,44.421,261.161,44.421,257.248z M56.808,257.248c0-2.983-2.052-5.167-5.452-5.167
			c-3.419,0-5.452,2.185-5.452,5.167c0,2.982,2.033,5.129,5.452,5.129C54.756,262.377,56.808,260.23,56.808,257.248z"/>
		<path fill="#FFFFFF" d="M61.445,250.922h1.121l9.916,10.068h0.038v-10.068h1.406v12.519h-0.969L62.889,253.22h-0.038v10.221
			h-1.405V250.922z"/>
	</g>
</g>
<g>
	<g>
		<g id="XMLID_95_">
			<path id="XMLID_99_" fill="#06183D" d="M17.581,290.456c0.667,0,1.016-0.063,1.286-0.142c0.746-0.222,1.048-0.683,1.048-1.271
				s-0.302-1.001-1.001-1.207c-0.27-0.079-0.556-0.095-1.08-0.095h-1.382v2.715H17.581z M13.801,285.486h4.097
				c0.889,0,1.509,0.079,2.064,0.238c1.636,0.461,2.668,1.556,2.668,3.287c0,1.763-1.064,3.001-3.002,3.462
				c-0.524,0.127-1.127,0.175-1.953,0.175h-1.223v3.303h-2.652V285.486z"/>
			<path id="XMLID_96_" fill="#06183D" d="M31.668,290.106c1.413,0,1.985-0.445,1.985-1.222c0-0.842-0.572-1.143-1.794-1.143H30.27
				v2.366H31.668z M33.621,291.758c0.874,0.492,1.175,2.239,2.462,2.239c0.285,0,0.555-0.064,0.809-0.159l0.476,2.001
				c-0.54,0.206-1.191,0.27-1.683,0.27c-3.383,0-3.716-3.874-4.843-3.874H30.27v3.716h-2.652v-10.464h4.319
				c2.859,0,4.43,1.095,4.43,3.303c0,1.556-0.984,2.62-2.747,2.937V291.758z"/>
		</g>
		<polygon id="XMLID_94_" fill="#06183D" points="41.816,285.486 41.816,295.95 50.042,295.95 50.042,293.695 44.469,293.695 
			44.469,291.805 49.455,291.805 49.455,289.551 44.469,289.551 44.469,287.74 49.947,287.74 49.947,285.486 		"/>
		<polygon id="XMLID_93_" fill="#06183D" points="65.717,285.486 61.684,290.281 61.652,290.281 57.619,285.486 55.22,285.486 
			55.22,295.95 57.872,295.95 57.872,289.646 57.905,289.646 61.445,293.87 61.858,293.87 65.399,289.646 65.431,289.646 
			65.431,295.95 68.083,295.95 68.083,285.486 		"/>
		<rect id="XMLID_92_" x="73.738" y="285.486" fill="#06183D" width="2.652" height="10.464"/>
		<polygon id="XMLID_91_" fill="#06183D" points="82.045,285.486 82.045,295.95 90.27,295.95 90.27,293.695 84.697,293.695 
			84.697,291.805 89.683,291.805 89.683,289.551 84.697,289.551 84.697,287.74 90.175,287.74 90.175,285.486 		"/>
		<path id="XMLID_88_" fill="#06183D" d="M99.498,290.106c1.413,0,1.985-0.445,1.985-1.222c0-0.842-0.572-1.143-1.794-1.143h-1.588
			v2.366H99.498z M101.451,291.758c0.873,0.492,1.175,2.239,2.462,2.239c0.285,0,0.555-0.064,0.809-0.159l0.476,2.001
			c-0.54,0.206-1.191,0.27-1.683,0.27c-3.383,0-3.716-3.874-4.843-3.874h-0.572v3.716h-2.652v-10.464h4.319
			c2.859,0,4.43,1.095,4.43,3.303c0,1.556-0.984,2.62-2.747,2.937V291.758z"/>
	</g>
	<g>
		<path id="XMLID_87_" fill="#06183D" d="M5.757,278.06c0.883,0.536,2.003,0.93,3.39,0.93c1.735,0,2.855-0.552,2.855-1.656
			c0-1.861-3.88-0.978-5.741-2.334c-0.583-0.426-0.946-1.057-0.946-2.051c0-2.05,1.703-3.059,4.053-3.059
			c1.593,0,3.107,0.457,4.085,1.025l-0.647,1.325c-0.852-0.426-2.082-0.82-3.327-0.82c-1.814,0-2.413,0.71-2.413,1.435
			c0,2.571,6.687,0.252,6.687,4.4c0,2.287-2.224,3.264-4.621,3.264c-1.719,0-3.122-0.457-4.132-1.12L5.757,278.06z"/>
		<polygon id="XMLID_86_" fill="#06183D" points="16.922,269.97 16.922,271.468 20.786,271.468 20.786,280.363 22.457,280.363 
			22.457,271.468 26.321,271.468 26.321,269.97 		"/>
		<path id="XMLID_83_" fill="#06183D" d="M33.748,272.272h0.032l1.829,3.643h-3.595L33.748,272.272z M33.196,269.923l-5.141,10.44
			h1.846l1.403-2.949h5.062l1.483,2.949h1.845l-5.331-10.44H33.196z"/>
		<polygon id="XMLID_82_" fill="#06183D" points="52.877,269.97 52.877,277.493 52.846,277.493 45.354,269.97 44.046,269.97 
			44.046,280.363 45.717,280.363 45.717,272.73 45.749,272.73 53.35,280.363 54.549,280.363 54.549,269.97 		"/>
		<path id="XMLID_79_" fill="#06183D" d="M63.521,278.864c1.025,0,1.877-0.095,2.603-0.3c1.735-0.505,2.791-1.64,2.791-3.564
			c0-1.94-1.12-2.902-2.697-3.312c-0.662-0.173-1.404-0.221-2.303-0.221h-2.019v7.396H63.521z M60.225,269.97h3.895
			c0.978,0,1.798,0.079,2.539,0.252c2.413,0.583,4.005,2.145,4.005,4.779c0,2.649-1.64,4.337-4.147,5.031
			c-0.852,0.237-1.798,0.331-2.965,0.331h-3.327V269.97z"/>
		<path id="XMLID_76_" fill="#06183D" d="M80.158,272.272h0.032l1.829,3.643h-3.596L80.158,272.272z M79.606,269.923l-5.141,10.44
			h1.845l1.403-2.949h5.063l1.482,2.949h1.845l-5.331-10.44H79.606z"/>
		<path id="XMLID_73_" fill="#06183D" d="M93.389,274.843c0.678,0,1.214-0.032,1.64-0.158c0.804-0.237,1.325-0.741,1.325-1.593
			c0-0.789-0.505-1.294-1.183-1.483c-0.442-0.126-0.915-0.142-1.577-0.142h-1.467v3.375H93.389z M90.456,269.97h3.107
			c0.788,0,1.498,0.047,2.098,0.205c1.356,0.363,2.444,1.246,2.444,2.886c0,1.783-1.277,2.681-2.981,2.965v0.032
			c0.678,0.378,1.104,1.766,1.94,2.444c0.315,0.252,0.662,0.41,1.104,0.41c0.189,0,0.489-0.032,0.725-0.095l0.347,1.419
			c-0.3,0.126-0.82,0.205-1.309,0.205c-0.788,0-1.403-0.284-1.908-0.694c-1.436-1.167-1.987-3.406-3.044-3.406h-0.852v4.021h-1.672
			V269.97z"/>
		<path id="XMLID_9_" fill="#06183D" d="M106.856,278.864c1.025,0,1.877-0.095,2.602-0.3c1.735-0.505,2.792-1.64,2.792-3.564
			c0-1.94-1.12-2.902-2.697-3.312c-0.662-0.173-1.404-0.221-2.303-0.221h-2.019v7.396H106.856z M103.56,269.97h3.895
			c0.978,0,1.798,0.079,2.539,0.252c2.413,0.583,4.005,2.145,4.005,4.779c0,2.649-1.64,4.337-4.147,5.031
			c-0.852,0.237-1.798,0.331-2.965,0.331h-3.327V269.97z"/>
	</g>
</g>
<g>
	<path fill="#FFFFFF" d="M7.092,328.383c1.116,0.685,2.719,1.026,4.069,1.026c1.71,0,2.593-0.414,2.593-1.188
		c0-1.765-7.4-0.018-7.4-4.609c0-2.521,2.214-3.817,5.023-3.817c1.8,0,3.943,0.45,5.257,1.225l-1.008,2.215
		c-1.08-0.559-2.845-0.918-4.141-0.918c-1.477,0-2.053,0.414-2.053,1.044c0,2.125,7.4,0.108,7.4,4.771
		c0,2.449-2.341,3.799-5.654,3.799c-1.909,0-3.889-0.432-5.257-1.332L7.092,328.383z"/>
	<path fill="#FFFFFF" d="M17.891,331.75l5.402-11.92h2.683l5.852,11.92H28.46l-1.152-2.503h-5.131l-1.026,2.503H17.891z
		 M24.625,323.413h-0.036l-1.368,3.313h2.917L24.625,323.413z"/>
	<path fill="#FFFFFF" d="M33.48,319.885h3.007v9.309h5.924v2.557H33.48V319.885z"/>
	<path fill="#FFFFFF" d="M44.028,319.885h9.219v2.557h-6.212v2.053h5.653v2.557h-5.653v2.143h6.32v2.557h-9.327V319.885z"/>
	<path fill="#FFFFFF" d="M60.264,319.885h9.219v2.557h-6.212v2.053h5.653v2.557h-5.653v2.143h6.319v2.557h-9.327V319.885z"/>
	<path fill="#FFFFFF" d="M72.216,319.885h2.61l6.95,7.22h0.036v-7.22h3.007v11.865h-2.485l-7.076-7.4h-0.035v7.4h-3.007V319.885z"/>
	<path fill="#FFFFFF" d="M87.983,319.885h4.988c1.224,0,2.07,0.09,2.845,0.27c2.574,0.612,4.627,2.341,4.627,5.474
		c0,3.205-2.16,4.861-4.159,5.563c-1.387,0.486-2.953,0.559-4.339,0.559h-3.962V319.885z M92.125,329.193
		c1.08,0,1.927-0.072,2.629-0.271c1.458-0.414,2.61-1.53,2.61-3.295c0-1.746-1.098-2.646-2.322-2.988
		c-0.685-0.198-1.387-0.198-2.539-0.198h-1.512v6.752H92.125z"/>
	<path fill="#FFFFFF" d="M103.337,328.383c1.116,0.685,2.719,1.026,4.069,1.026c1.711,0,2.593-0.414,2.593-1.188
		c0-1.765-7.4-0.018-7.4-4.609c0-2.521,2.215-3.817,5.023-3.817c1.801,0,3.943,0.45,5.258,1.225l-1.008,2.215
		c-1.081-0.559-2.846-0.918-4.142-0.918c-1.477,0-2.053,0.414-2.053,1.044c0,2.125,7.4,0.108,7.4,4.771
		c0,2.449-2.341,3.799-5.653,3.799c-1.909,0-3.89-0.432-5.258-1.332L103.337,328.383z"/>
	<path fill="#FFFFFF" d="M22.77,349.75l5.401-11.92h2.683l5.852,11.92h-3.367l-1.152-2.503h-5.131l-1.026,2.503H22.77z
		 M29.504,341.413h-0.036l-1.369,3.313h2.917L29.504,341.413z"/>
	<path fill="#FFFFFF" d="M38.358,337.885h4.646c1.008,0,1.71,0.09,2.34,0.27c1.855,0.522,3.025,1.765,3.025,3.728
		c0,1.998-1.207,3.402-3.403,3.925c-0.594,0.145-1.278,0.198-2.215,0.198h-1.386v3.745h-3.007V337.885z M42.644,343.521
		c0.756,0,1.152-0.072,1.458-0.162c0.846-0.252,1.188-0.774,1.188-1.44c0-0.667-0.342-1.135-1.134-1.369
		c-0.306-0.09-0.63-0.107-1.225-0.107h-1.566v3.079H42.644z"/>
	<path fill="#FFFFFF" d="M57.584,344.997c0.99,0.558,1.332,2.538,2.791,2.538c0.325,0,0.63-0.072,0.918-0.18l0.54,2.269
		c-0.612,0.234-1.351,0.306-1.909,0.306c-3.835,0-4.214-4.393-5.492-4.393h-0.647v4.213h-3.008v-11.865h4.898
		c3.24,0,5.024,1.242,5.024,3.745c0,1.765-1.118,2.971-3.116,3.331V344.997z M55.37,343.124c1.603,0,2.251-0.504,2.251-1.387
		c0-0.954-0.648-1.296-2.035-1.296h-1.8v2.683H55.37z"/>
	<path fill="#FFFFFF" d="M63.63,337.885h3.008v11.865H63.63V337.885z"/>
	<path fill="#FFFFFF" d="M69.804,337.885h3.008v9.309h5.924v2.557h-8.932V337.885z"/>
	<path fill="#FFFFFF" d="M88.417,337.885h2.972l-4.268,6.607h3.097v-3.024h2.719v3.024h3.097v2.323h-3.097v3.114h-2.719v-3.114
		H84.78l-1.116-1.566L88.417,337.885z"/>
</g>
</svg>
