<?xml version="1.0" encoding="utf-8"?>
<!-- Generator: Adobe Illustrator 17.0.0, SVG Export Plug-In . SVG Version: 6.00 Build 0)  -->
<!DOCTYPE svg PUBLIC "-//W3C//DTD SVG 1.1//EN" "http://www.w3.org/Graphics/SVG/1.1/DTD/svg11.dtd">
<svg version="1.1" id="Layer_1" xmlns="http://www.w3.org/2000/svg" xmlns:xlink="http://www.w3.org/1999/xlink" x="0px" y="0px"
	 width="300px" height="600px" viewBox="0 0 300 600" enable-background="new 0 0 300 600" xml:space="preserve">
<g>
	<path fill="#06183D" d="M89.495,563.424l-2.245,1.386l-0.664-1.094l2.382-1.367l-2.382-1.366l0.664-1.094l2.245,1.386l-0.039-2.46
		h1.328l-0.039,2.46l2.265-1.405l0.664,1.093l-2.402,1.386l2.402,1.387l-0.664,1.093l-2.265-1.405l0.039,2.382h-1.328
		L89.495,563.424z"/>
	<path fill="#06183D" d="M100.134,560.612h-5.019v-1.289h11.502v1.289h-5.038v11.579h-1.445V560.612z"/>
	<path fill="#06183D" d="M106.536,570.278c0.899,0.508,1.973,0.82,3.398,0.82c1.308,0,2.734-0.351,2.734-1.581
		c0-0.293-0.097-0.527-0.273-0.703c-0.937-0.977-4.355-0.352-5.565-1.952c-0.274-0.352-0.449-0.801-0.449-1.406
		c0-1.816,1.543-2.831,3.768-2.831c1.465,0,2.773,0.332,3.867,0.859l-0.508,1.132c-1.074-0.488-2.09-0.702-3.32-0.702
		c-1.347,0-2.304,0.468-2.304,1.445c0,0.292,0.097,0.547,0.254,0.741c0.879,1.055,4.16,0.45,5.468,1.777
		c0.352,0.352,0.586,0.821,0.586,1.523c0,2.226-2.148,2.988-4.218,2.988c-1.62,0-3.066-0.371-4.023-0.975L106.536,570.278z"/>
	<path fill="#06183D" d="M116.61,568.657c0-1.972,1.406-2.988,3.046-3.457v-0.038c-1.308-0.548-2.128-1.328-2.128-2.715
		c0-1.914,1.66-3.223,4.921-3.223c3.007,0,5.097,1.192,5.097,3.3c0,1.582-1.152,2.715-3.749,3.047v0.039
		c1.328,0.526,2.753,1.308,4.14,2.616c0.469-0.625,0.859-1.366,1.191-2.226l1.289,0.469c-0.352,0.996-0.859,1.933-1.523,2.753
		c0.742,0.801,1.426,1.777,2.09,2.969h-1.68c-0.429-0.722-0.898-1.367-1.386-1.953c-1.464,1.309-3.456,2.148-6.053,2.148
		C118.601,572.386,116.61,570.942,116.61,568.657z M126.998,569.262c-1.816-1.815-3.827-2.675-5.546-3.3
		c-1.777,0.235-3.339,0.957-3.339,2.578c0,1.582,1.367,2.578,3.73,2.578C123.893,571.118,125.631,570.512,126.998,569.262z
		 M126.041,562.506c0-1.211-1.328-2.011-3.573-2.011c-2.265,0-3.437,0.781-3.437,1.972c0,1.289,1.269,1.757,2.909,2.324
		C125.046,564.498,126.041,563.737,126.041,562.506z"/>
	<path fill="#06183D" d="M140.311,559.225c1.66,0,3.163,0.314,4.628,0.938l-0.449,1.23c-1.172-0.527-2.5-0.879-4.062-0.879
		c-3.691,0-5.995,2.226-5.995,5.292c0,3.261,2.09,5.291,5.976,5.291c1.484,0,2.871-0.351,4.081-0.839l0.488,1.23
		c-1.601,0.645-3.164,0.898-4.706,0.898c-4.785,0-7.362-2.597-7.362-6.463C132.91,562.057,135.8,559.225,140.311,559.225z"/>
	<path fill="#06183D" d="M147.102,570.278c0.899,0.508,1.973,0.82,3.398,0.82c1.308,0,2.734-0.351,2.734-1.581
		c0-0.293-0.097-0.527-0.273-0.703c-0.937-0.977-4.355-0.352-5.565-1.952c-0.274-0.352-0.449-0.801-0.449-1.406
		c0-1.816,1.543-2.831,3.768-2.831c1.465,0,2.774,0.332,3.867,0.859l-0.507,1.132c-1.074-0.488-2.09-0.702-3.32-0.702
		c-1.347,0-2.304,0.468-2.304,1.445c0,0.292,0.097,0.547,0.254,0.741c0.879,1.055,4.16,0.45,5.468,1.777
		c0.352,0.352,0.586,0.821,0.586,1.523c0,2.226-2.148,2.988-4.218,2.988c-1.62,0-3.065-0.371-4.022-0.975L147.102,570.278z"/>
	<path fill="#06183D" d="M161.254,568.266c0-2.03,0.898-3.691,2.52-4.668c1.016-0.605,2.304-0.975,4.081-0.975
		c0.918,0,1.875,0.077,2.695,0.156v7.244c0,0.742,0.41,0.977,0.956,0.977c0.273,0,0.625-0.077,0.82-0.137l0.293,1.192
		c-0.43,0.156-0.937,0.234-1.426,0.234c-1.113,0-1.933-0.547-2.011-1.835c0-0.312-0.019-0.664,0-1.152h-0.039
		c-0.703,1.738-2.187,3.085-4.238,3.085C162.934,572.386,161.254,571.039,161.254,568.266z M169.105,564.517v-0.547
		c-0.371-0.039-0.82-0.058-1.465-0.058c-1.25,0-2.304,0.292-3.085,0.8c-1.132,0.723-1.796,1.934-1.796,3.496
		c0,1.757,0.84,2.889,2.344,2.889C167.035,571.097,169.105,569.009,169.105,564.517z"/>
	<path fill="#06183D" d="M175.311,564.126h-1.895v-1.25h3.339v1.407c0,0.312,0,0.781-0.02,1.25h0.039
		c0.606-1.523,2.031-2.909,4.101-2.909c2.109,0,3.671,1.464,3.671,4.042c0,3.105-2.206,5.721-5.936,5.721
		c-0.566,0-1.23-0.058-1.855-0.234v4.668h-1.445V564.126z M178.591,571.097c2.187,0,4.453-1.445,4.453-4.432
		c0-1.581-0.84-2.753-2.363-2.753c-1.875,0-3.925,1.991-3.925,6.522v0.371C177.361,571.02,178.045,571.097,178.591,571.097z"/>
	<path fill="#06183D" d="M187.844,564.126h-1.894v-1.25h3.338v1.407c0,0.312,0,0.781-0.019,1.25h0.039
		c0.605-1.523,2.03-2.909,4.101-2.909c2.109,0,3.671,1.464,3.671,4.042c0,3.105-2.206,5.721-5.936,5.721
		c-0.567,0-1.231-0.058-1.856-0.234v4.668h-1.445V564.126z M191.125,571.097c2.187,0,4.452-1.445,4.452-4.432
		c0-1.581-0.84-2.753-2.363-2.753c-1.875,0-3.925,1.991-3.925,6.522v0.371C189.894,571.02,190.577,571.097,191.125,571.097z"/>
	<path fill="#06183D" d="M198.327,558.366h3.338v11.717c0,0.703,0.391,0.917,0.977,0.917c0.254,0,0.606-0.058,0.801-0.117
		l0.293,1.19c-0.449,0.137-0.918,0.215-1.386,0.215c-1.328,0-2.129-0.625-2.129-1.933v-10.741h-1.894V558.366z"/>
	<path fill="#06183D" d="M208.928,571.352l-4.823-8.475h1.641l3.964,6.913h0.038l3.554-6.913h1.562l-7.244,13.943h-1.543
		L208.928,571.352z"/>
</g>
</svg>
